<?xml version="1.0" encoding="UTF-8"?>
<svg xmlns="http://www.w3.org/2000/svg" width="300" height="300">
<path fill="#AAA" d="m42,137l-6,15 6,15-24-15zm220,0l6,15-6,15 24-15m-149-70l15-6
15,6-15-24zm0,140l15,6 15-6-15,24"/>
<g fill="none" stroke-width="10">
<path stroke="#AAA" d="m132,151a60,60 0 1,1 0,2m40,0a60,60 0 1,1
0-2m100,1H32m120-80v160"/>
<path stroke="#007CC3" d="m128,147a60,60 0 1,1 0,2m40,0a60,60 0 1,1
0-2m100,1H28m120-80v160"/></g>
<path fill="#007CC3" d="m38,133l-6,15 6,15-24-15zm220,0l6,15-6,15
24-15m-149-70l15-6 15,6-15-24zm0,140l15,6 15-6-15,24"/>
</svg>
